<svg id="Capa_1" enable-background="new 0 0 512 512" height="512" viewBox="0 0 512 512" width="512" xmlns="http://www.w3.org/2000/svg"><g><path d="m418.922 442.374c-8.578 0-15.531-6.954-15.531-15.531v-31.063h31.062v31.062c0 8.578-6.953 15.532-15.531 15.532z" fill="#365e7d"/><path d="m418.391 426.842v-31.062h-15v31.062c0 8.578 6.953 15.531 15.531 15.531 2.72 0 5.277-.699 7.5-1.928-4.788-2.645-8.031-7.745-8.031-13.603z" fill="#2b4d66"/><path d="m434.453 116.22h-31.062v-15.531c0-8.578 6.953-15.531 15.531-15.531 8.578 0 15.531 6.954 15.531 15.531z" fill="#365e7d"/><path d="m426.422 87.085c-2.223-1.229-4.78-1.928-7.5-1.928-8.578 0-15.531 6.953-15.531 15.531v15.531h15v-15.531c0-5.857 3.243-10.957 8.031-13.603z" fill="#2b4d66"/><path d="m395.469 116.22h46.907v279.56h-46.907z" fill="#f9d264"/><path d="m395.472 116.22h20v279.56h-20z" fill="#efc356"/><path d="m38.566 38.564h326.154v465.934h-326.154z" fill="#365e7d"/><path d="m38.562 38.56h31.07v465.94h-31.07z" fill="#2b4d66"/><path d="m69.628 69.63h264.03v403.81h-264.03z" fill="#eaf6ff"/><path d="m232.706 38.564c0-17.155-13.907-31.062-31.062-31.062-17.155 0-31.062 13.907-31.062 31.062h-54.359v14.593c0 17.673 14.327 32 32 32h106.842c17.673 0 32-14.327 32-32v-14.593z" fill="#f9d264"/><path d="m168.222 85.16h-20c-17.67 0-32-14.33-32-32v-14.6h20v14.6c0 17.67 14.33 32 32 32z" fill="#efc356"/><g><path d="m364.722 31.06h-77.66-47.592c-3.5-17.685-19.131-31.06-37.828-31.06-20.438 1.716-33.05 12.07-37.835 31.06h-47.585-77.66c-4.142 0-7.5 3.357-7.5 7.5v465.94c0 4.143 3.358 7.5 7.5 7.5h326.16c4.142 0 7.5-3.357 7.5-7.5v-465.94c0-4.143-3.357-7.5-7.5-7.5zm-7.5 465.94h-311.16v-450.94h62.66c-.273 5.393.074 10.749 1.04 16.07h-40.13c-4.142 0-7.5 3.357-7.5 7.5v302.04c0 4.143 3.358 7.5 7.5 7.5s7.5-3.357 7.5-7.5v-294.54h39.724c7.225 9.432 18.594 15.53 31.366 15.53h37.08c4.142 0 7.5-3.357 7.5-7.5s-3.358-7.5-7.5-7.5h-37.08c-17.383 0-25.089-17.162-24.5-31.601h46.86c4.142 0 7.5-3.357 7.5-7.5 1.351-14.355 9.205-22.209 23.56-23.56 12.991 0 23.56 10.568 23.56 23.56 0 4.143 3.358 7.5 7.5 7.5h46.86c.589 14.438-7.117 31.601-24.5 31.601h-37.07c-4.142 0-7.5 3.357-7.5 7.5s3.358 7.5 7.5 7.5h37.07c12.772 0 24.141-6.098 31.366-15.53h39.734v388.81h-249.03v-61.58c0-4.143-3.358-7.5-7.5-7.5s-7.5 3.357-7.5 7.5v69.08c0 4.143 3.358 7.5 7.5 7.5h264.03c4.142 0 7.5-3.357 7.5-7.5v-403.81c0-4.143-3.358-7.5-7.5-7.5h-40.14c.966-5.321 1.312-10.678 1.04-16.07h62.66z"/><path d="m458.438 155.313h-8.565v-39.093c0-4.143-3.358-7.5-7.5-7.5h-.419v-8.031c0-12.699-10.332-23.031-23.031-23.031s-23.031 10.332-23.031 23.031v8.031h-.419c-4.142 0-7.5 3.357-7.5 7.5v279.56c0 4.143 3.358 7.5 7.5 7.5h.419v23.563c0 10.073 6.504 18.651 15.531 21.77v15.41c0 4.143 3.358 7.5 7.5 7.5s7.5-3.357 7.5-7.5v-15.41c9.027-3.119 15.531-11.696 15.531-21.77v-23.563h.419c4.142 0 7.5-3.357 7.5-7.5v-61.31c0-4.143-3.358-7.5-7.5-7.5s-7.5 3.357-7.5 7.5v53.811h-.419-31.062-.419v-217.968h31.9v131.467c0 4.143 3.358 7.5 7.5 7.5s7.5-3.357 7.5-7.5v-131.467h8.565c4.136 0 7.5 3.364 7.5 7.5v78.187c0 4.143 3.358 7.5 7.5 7.5s7.5-3.357 7.5-7.5v-78.187c0-12.406-10.094-22.5-22.5-22.5zm-47.547-54.625c0-4.429 3.603-8.031 8.031-8.031s8.031 3.603 8.031 8.031v8.031h-16.062zm16.062 302.592v23.563c0 4.428-3.603 8.03-8.031 8.03-4.428 0-8.031-3.603-8.031-8.03v-23.563zm-23.981-247.967v-31.593h.419 31.062.419v31.594h-31.9z"/><path d="m131.753 139.251h139.78c4.142 0 7.5-3.357 7.5-7.5s-3.358-7.5-7.5-7.5h-139.78c-4.142 0-7.5 3.357-7.5 7.5s3.358 7.5 7.5 7.5z"/><path d="m100.691 201.376h201.904c4.142 0 7.5-3.357 7.5-7.5s-3.358-7.5-7.5-7.5h-201.904c-4.142 0-7.5 3.357-7.5 7.5s3.358 7.5 7.5 7.5z"/><path d="m100.691 232.438h201.904c4.142 0 7.5-3.357 7.5-7.5s-3.358-7.5-7.5-7.5h-201.904c-4.142 0-7.5 3.357-7.5 7.5s3.358 7.5 7.5 7.5z"/><path d="m100.691 263.5h201.904c4.142 0 7.5-3.357 7.5-7.5s-3.358-7.5-7.5-7.5h-201.904c-4.142 0-7.5 3.357-7.5 7.5s3.358 7.5 7.5 7.5z"/><path d="m100.691 294.563h201.904c4.142 0 7.5-3.357 7.5-7.5s-3.358-7.5-7.5-7.5h-201.904c-4.142 0-7.5 3.357-7.5 7.5s3.358 7.5 7.5 7.5z"/><path d="m100.691 325.624h201.904c4.142 0 7.5-3.357 7.5-7.5s-3.358-7.5-7.5-7.5h-201.904c-4.142 0-7.5 3.357-7.5 7.5s3.358 7.5 7.5 7.5z"/><path d="m291.264 365.392c-13.153-10.898-26.306-10.898-39.46-.002-4.734 5.772-11.553 6.508-20.457 2.208-14.804-11.718-28.75-10.815-41.839 2.708l-32.276 35.999c-2.765 3.084-2.507 7.826.577 10.591 3.609 2.734 7.14 2.542 10.591-.577l32.478-36.225c4.891-5.464 13.912-7.842 19.863-1.889 10.88 10.879 28.582 10.88 39.46.001 5.181-5.362 14.158-8.507 20.457-2.208l16.635 16.635c2.929 2.928 7.678 2.928 10.606 0 2.929-2.93 2.929-7.678 0-10.607z"/></g></g></svg>